<?xml version="1.0" standalone="no"?>
<!DOCTYPE svg PUBLIC "-//W3C//DTD SVG 1.1//EN"
"http://www.w3.org/Graphics/SVG/1.1/DTD/svg11.dtd">
<svg width="7000" height="7000" xmlns="http://www.w3.org/2000/svg" version="1.1">
<path d="M5756.455942,3956.152410 C6205.102968,4720.588941 5407.619865,5773.412827 4550.242953,5548.574670 L4697.741414,5081.238229 C4920.754097,5109.910104 5144.830098,4880.176328 5110.607274,4657.947772 L5104.961668,4594.244337 C5210.792884,4574.962416 5286.341202,4444.108890 5250.124227,4342.815408 L5233.926475,4282.377420 L5756.455942,3956.152410 " stroke="none" stroke-width="1" fill="#800066"/>
<path d="M4550.242953,5548.574670 C4232.309252,6375.959421 2911.955811,6408.886980 2553.175600,5598.378420 L3010.517728,5422.317856 C3127.147287,5614.552814 3446.469487,5646.505819 3598.877187,5481.192100 L3645.162560,5437.059745 C3726.222457,5507.779840 3875.631469,5485.260055 3932.244988,5393.789031 L3969.398176,5343.442649 L4550.242953,5548.574670 " stroke="none" stroke-width="1" fill="#800066"/>
<path d="M2553.175600,5598.378420 C1708.071733,5865.673798 859.101025,4853.909906 1269.086332,4068.060421 L1691.884176,4315.852929 C1614.306175,4526.894125 1788.418444,4796.472647 2012.690561,4812.558367 L2076.053084,4821.229656 C2071.301906,4928.698094 2182.063578,5031.469906 2288.876457,5018.700887 L2351.403477,5016.357964 L2553.175600,5598.378420 " stroke="none" stroke-width="1" fill="#800066"/>
<path d="M1269.086332,4068.060421 C533.192748,3573.987554 794.897032,2279.411059 1664.920558,2109.981339 L1734.798718,2595.034106 C1521.430974,2665.963216 1419.223223,2970.169129 1546.478279,3155.541413 L1579.204679,3210.486688 C1492.220160,3273.777543 1480.928694,3424.451682 1557.508656,3500.000000 L1598.325387,3547.424804 L1269.086332,4068.060421 " stroke="none" stroke-width="1" fill="#800066"/>
<path d="M1664.920558,2109.981339 C1592.380135,1226.587173 2767.690748,624.040579 3442.607033,1198.614659 L3106.945829,1555.673059 C2918.458606,1433.079016 2616.895355,1542.839063 2551.307697,1757.908800 L2528.754328,1817.753149 C2425.037584,1789.207116 2300.195685,1874.322882 2288.876457,1981.299113 L2277.247067,2042.779800 L1664.920558,2109.981339 " stroke="none" stroke-width="1" fill="#800066"/>
<path d="M3442.607033,1198.614659 C4088.044189,591.113020 5291.928267,1134.326202 5263.511583,2020.238081 L4775.070747,1980.429856 C4753.398768,1756.628475 4479.563297,1589.291101 4270.521769,1672.106393 L4209.671778,1691.785801 C4167.323633,1592.898625 4022.939797,1548.362110 3932.244988,1606.210969 L3876.926646,1635.451328 L3442.607033,1198.614659 " stroke="none" stroke-width="1" fill="#800066"/>
<path d="M5263.511583,2020.238081 C6140.898975,2146.090094 6466.807252,3426.012446 5756.455942,3956.152410 L5483.041386,3549.453965 C5644.504094,3392.972250 5604.600096,3074.545912 5409.517233,2962.745154 L5356.191904,2927.440625 C5407.101375,2832.676367 5351.899575,2692.024475 5250.124227,2657.184592 L5192.772772,2632.166036 L5263.511583,2020.238081 " stroke="none" stroke-width="1" fill="#800066"/>
<path d="M5483.041386,3549.453965 L5756.455942,3956.152410 L5233.926475,4282.377420 L5198.359690,4166.557060 C5353.758079,4097.216652 5413.631577,3862.078629 5310.319685,3726.862489 L5483.041386,3549.453965 " stroke="none" stroke-width="1" fill="#D40000"/>
<path d="M4697.741414,5081.238229 L4550.242953,5548.574670 L3969.398176,5343.442649 L4037.774652,5243.422603 C4188.876477,5321.684919 4410.045301,5221.889745 4451.347625,5056.811371 L4697.741414,5081.238229 " stroke="none" stroke-width="1" fill="#D40000"/>
<path d="M3010.517728,5422.317856 L2553.175600,5598.378420 L2351.403477,5016.357964 L2472.234333,5007.455367 C2505.256838,5174.387287 2721.176352,5285.082763 2875.991400,5214.449538 L3010.517728,5422.317856 " stroke="none" stroke-width="1" fill="#D40000"/>
<path d="M1691.884176,4315.852929 L1269.086332,4068.060421 L1598.325387,3547.424804 L1680.622524,3636.343493 C1570.699088,3766.241876 1618.777495,4004.072051 1770.526378,4081.072234 L1691.884176,4315.852929 " stroke="none" stroke-width="1" fill="#D40000"/>
<path d="M1734.798718,2595.034106 L1664.920558,2109.981339 L2277.247067,2042.779800 L2259.039062,2162.562188 C2088.944276,2157.610903 1932.977554,2343.484803 1967.390268,2510.135686 L1734.798718,2595.034106 " stroke="none" stroke-width="1" fill="#D40000"/>
<path d="M3106.945829,1555.673059 L3442.607033,1198.614659 L3876.926646,1635.451328 L3771.924498,1695.898834 C3669.743204,1559.826299 3427.177477,1553.777087 3318.340546,1684.587156 L3106.945829,1555.673059 " stroke="none" stroke-width="1" fill="#D40000"/>
<path d="M4775.070747,1980.429856 L5263.511583,2020.238081 L5192.772772,2632.166036 L5080.045241,2587.760455 C5122.722038,2423.032065 4976.214244,2229.614920 4806.084098,2226.081526 L4775.070747,1980.429856 " stroke="none" stroke-width="1" fill="#D40000"/>
<path d="M5233.926475,4282.377420 L5250.124227,4342.815408 C5286.341202,4444.108890 5210.792884,4574.962416 5104.961668,4594.244337 L5069.244468,4354.564990 L5233.926475,4282.377420 " stroke="none" stroke-width="1" fill="#D40000"/>
<path d="M3969.398176,5343.442649 L3932.244988,5393.789031 C3875.631469,5485.260055 3726.222457,5507.779840 3645.162560,5437.059745 L3810.282109,5259.697285 L3969.398176,5343.442649 " stroke="none" stroke-width="1" fill="#D40000"/>
<path d="M2351.403477,5016.357964 L2288.876457,5018.700887 C2182.063578,5031.469906 2071.301906,4928.698094 2076.053084,4821.229656 L2317.670994,4839.741633 L2351.403477,5016.357964 " stroke="none" stroke-width="1" fill="#D40000"/>
<path d="M1598.325387,3547.424804 L1557.508656,3500.000000 C1480.928694,3424.451682 1492.220160,3273.777543 1579.204679,3210.486688 L1715.377735,3410.933206 L1598.325387,3547.424804 " stroke="none" stroke-width="1" fill="#D40000"/>
<path d="M2277.247067,2042.779800 L2288.876457,1981.299113 C2300.195685,1874.322882 2425.037584,1789.207116 2528.754328,1817.753149 L2456.941442,2049.193891 L2277.247067,2042.779800 " stroke="none" stroke-width="1" fill="#D40000"/>
<path d="M3876.926646,1635.451328 L3932.244988,1606.210969 C4022.939797,1548.362110 4167.323633,1592.898625 4209.671778,1691.785801 L3983.949517,1779.941168 L3876.926646,1635.451328 " stroke="none" stroke-width="1" fill="#D40000"/>
<path d="M5192.772772,2632.166036 L5250.124227,2657.184592 C5351.899575,2692.024475 5407.101375,2832.676367 5356.191904,2927.440625 L5146.533735,2805.927828 L5192.772772,2632.166036 " stroke="none" stroke-width="1" fill="#D40000"/>
<path d="M5104.961668,4594.244337 L5110.607274,4657.947772 C5144.830098,4880.176328 4920.754097,5109.910104 4697.741414,5081.238229 L4732.681794,4896.798278 C4870.607029,4905.213976 5003.710304,4761.762762 4985.010973,4624.852100 L5104.961668,4594.244337 " stroke="none" stroke-width="1" fill="#D40000"/>
<path d="M3645.162560,5437.059745 L3598.877187,5481.192100 C3446.469487,5646.505819 3127.147287,5614.552814 3010.517728,5422.317856 L3176.503659,5334.638916 C3255.918979,5447.720309 3451.062189,5462.344271 3546.444412,5362.362143 L3645.162560,5437.059745 " stroke="none" stroke-width="1" fill="#D40000"/>
<path d="M2076.053084,4821.229656 L2012.690561,4812.558367 C1788.418444,4796.472647 1614.306175,4526.894125 1691.884176,4315.852929 L1863.924867,4390.959031 C1825.028916,4523.553523 1935.265244,4685.240519 2072.904262,4697.475507 L2076.053084,4821.229656 " stroke="none" stroke-width="1" fill="#D40000"/>
<path d="M1579.204679,3210.486688 L1546.478279,3155.541413 C1419.223223,2970.169129 1521.430974,2665.963216 1734.798718,2595.034106 L1783.344019,2776.368823 C1655.426243,2828.630057 1597.745485,3015.626482 1673.996310,3130.865390 L1579.204679,3210.486688 " stroke="none" stroke-width="1" fill="#D40000"/>
<path d="M2528.754328,1817.753149 L2551.307697,1757.908800 C2616.895355,1542.839063 2918.458606,1433.079016 3106.945829,1555.673059 L2995.440139,1706.687651 C2874.825231,1639.261852 2692.662174,1710.755584 2650.106380,1842.221163 L2528.754328,1817.753149 " stroke="none" stroke-width="1" fill="#D40000"/>
<path d="M4209.671778,1691.785801 L4270.521769,1672.106393 C4479.563297,1589.291101 4753.398768,1756.628475 4775.070747,1980.429856 L4587.480125,1987.407254 C4564.993572,1851.067425 4395.520714,1753.222224 4266.203681,1801.918213 L4209.671778,1691.785801 " stroke="none" stroke-width="1" fill="#D40000"/>
<path d="M5356.191904,2927.440625 L5409.517233,2962.745154 C5604.600096,3074.545912 5644.504094,3392.972250 5483.041386,3549.453965 L5360.625396,3407.140047 C5453.200031,3304.552858 5424.033890,3111.048158 5305.333982,3040.305483 L5356.191904,2927.440625 " stroke="none" stroke-width="1" fill="#D40000"/>
<path d="M4985.010973,4624.852100 C5003.710304,4761.762762 4870.607029,4905.213976 4732.681794,4896.798278 L4756.389504,4665.759097 L4985.010973,4624.852100 " stroke="none" stroke-width="1" fill="#FF7F2A"/>
<path d="M3546.444412,5362.362143 C3451.062189,5462.344271 3255.918979,5447.720309 3176.503659,5334.638916 L3371.918879,5209.123777 L3546.444412,5362.362143 " stroke="none" stroke-width="1" fill="#FF7F2A"/>
<path d="M2072.904262,4697.475507 C1935.265244,4685.240519 1825.028916,4523.553523 1863.924867,4390.959031 L2083.895951,4465.483393 L2072.904262,4697.475507 " stroke="none" stroke-width="1" fill="#FF7F2A"/>
<path d="M1673.996310,3130.865390 C1597.745485,3015.626482 1655.426243,2828.630057 1783.344019,2776.368823 L1862.228255,2994.814321 L1673.996310,3130.865390 " stroke="none" stroke-width="1" fill="#FF7F2A"/>
<path d="M2650.106380,1842.221163 C2692.662174,1710.755584 2874.825231,1639.261852 2995.440139,1706.687651 L2873.836087,1904.560370 L2650.106380,1842.221163 " stroke="none" stroke-width="1" fill="#FF7F2A"/>
<path d="M4266.203681,1801.918213 C4395.520714,1753.222224 4564.993572,1851.067425 4587.480125,1987.407254 L4356.958117,2015.705001 L4266.203681,1801.918213 " stroke="none" stroke-width="1" fill="#FF7F2A"/>
<path d="M5305.333982,3040.305483 C5424.033890,3111.048158 5453.200031,3304.552858 5360.625396,3407.140047 L5194.773206,3244.554040 L5305.333982,3040.305483 " stroke="none" stroke-width="1" fill="#FF7F2A"/>
<path d="M4732.681794,4896.798278 L4697.741414,5081.238229 L4451.347625,5056.811371 L4500.487756,4891.593729 L4732.681794,4896.798278 " stroke="none" stroke-width="1" fill="#FF7F2A"/>
<path d="M3176.503659,5334.638916 L3010.517728,5422.317856 L2875.991400,5214.449538 L3035.802125,5149.857324 L3176.503659,5334.638916 " stroke="none" stroke-width="1" fill="#FF7F2A"/>
<path d="M1863.924867,4390.959031 L1691.884176,4315.852929 L1770.526378,4081.072234 L1920.666961,4165.744703 L1863.924867,4390.959031 " stroke="none" stroke-width="1" fill="#FF7F2A"/>
<path d="M1783.344019,2776.368823 L1734.798718,2595.034106 L1967.390268,2510.135686 L1994.801788,2680.312742 L1783.344019,2776.368823 " stroke="none" stroke-width="1" fill="#FF7F2A"/>
<path d="M2995.440139,1706.687651 L3106.945829,1555.673059 L3318.340546,1684.587156 L3202.381569,1812.122005 L2995.440139,1706.687651 " stroke="none" stroke-width="1" fill="#FF7F2A"/>
<path d="M4587.480125,1987.407254 L4775.070747,1980.429856 L4806.084098,2226.081526 L4634.074099,2214.937824 L4587.480125,1987.407254 " stroke="none" stroke-width="1" fill="#FF7F2A"/>
<path d="M5360.625396,3407.140047 L5483.041386,3549.453965 L5310.319685,3726.862489 L5211.785701,3585.431673 L5360.625396,3407.140047 " stroke="none" stroke-width="1" fill="#FF7F2A"/>
<path d="M4451.347625,5056.811371 C4410.045301,5221.889745 4188.876477,5321.684919 4037.774652,5243.422603 L4126.163913,5095.439630 C4183.310567,5121.004191 4263.261547,5084.928934 4281.906852,5025.165739 L4451.347625,5056.811371 " stroke="none" stroke-width="1" fill="#FF7F2A"/>
<path d="M2875.991400,5214.449538 C2721.176352,5285.082763 2505.256838,5174.387287 2472.234333,5007.455367 L2643.041883,4984.294999 C2658.685060,5044.913295 2736.738453,5084.928934 2795.088357,5062.244678 L2875.991400,5214.449538 " stroke="none" stroke-width="1" fill="#FF7F2A"/>
<path d="M1770.526378,4081.072234 C1618.777495,4004.072051 1570.699088,3766.241876 1680.622524,3636.343493 L1805.226794,3755.445960 C1767.586863,3805.471178 1784.966871,3891.445120 1839.082707,3922.921510 L1770.526378,4081.072234 " stroke="none" stroke-width="1" fill="#FF7F2A"/>
<path d="M1967.390268,2510.135686 C1932.977554,2343.484803 2088.944276,2157.610903 2259.039062,2162.562188 L2243.610496,2334.240903 C2181.031093,2336.003033 2124.650215,2403.195146 2133.781655,2465.129819 L1967.390268,2510.135686 " stroke="none" stroke-width="1" fill="#FF7F2A"/>
<path d="M3318.340546,1684.587156 C3427.177477,1553.777087 3669.743204,1559.826299 3771.924498,1695.898834 L3628.081121,1790.876223 C3587.685812,1743.048346 3500.000000,1740.861598 3457.270883,1786.616482 L3318.340546,1684.587156 " stroke="none" stroke-width="1" fill="#FF7F2A"/>
<path d="M4806.084098,2226.081526 C4976.214244,2229.614920 5122.722038,2423.032065 5080.045241,2587.760455 L4916.104049,2534.516607 C4928.311326,2473.114089 4875.349785,2403.195146 4812.936007,2398.315881 L4806.084098,2226.081526 " stroke="none" stroke-width="1" fill="#FF7F2A"/>
<path d="M5310.319685,3726.862489 C5413.631577,3862.078629 5353.758079,4097.216652 5198.359690,4166.557060 L5137.771745,4005.185679 C5193.389279,3976.445868 5215.033129,3891.445120 5179.933539,3839.605892 L5310.319685,3726.862489 " stroke="none" stroke-width="1" fill="#FF7F2A"/>
<path d="M4037.774652,5243.422603 L3969.398176,5343.442649 L3810.282109,5259.697285 L3881.382241,5170.944776 L4037.774652,5243.422603 " stroke="none" stroke-width="1" fill="#FF7F2A"/>
<path d="M2472.234333,5007.455367 L2351.403477,5016.357964 L2317.670994,4839.741633 L2431.390707,4839.993670 L2472.234333,5007.455367 " stroke="none" stroke-width="1" fill="#FF7F2A"/>
<path d="M1680.622524,3636.343493 L1598.325387,3547.424804 L1715.377735,3410.933206 L1786.083766,3500.000000 L1680.622524,3636.343493 " stroke="none" stroke-width="1" fill="#FF7F2A"/>
<path d="M2259.039062,2162.562188 L2277.247067,2042.779800 L2456.941442,2049.193891 L2431.390707,2160.006330 L2259.039062,2162.562188 " stroke="none" stroke-width="1" fill="#FF7F2A"/>
<path d="M3771.924498,1695.898834 L3876.926646,1635.451328 L3983.949517,1779.941168 L3881.382241,1829.055224 L3771.924498,1695.898834 " stroke="none" stroke-width="1" fill="#FF7F2A"/>
<path d="M5080.045241,2587.760455 L5192.772772,2632.166036 L5146.533735,2805.927828 L5044.185169,2756.359616 L5080.045241,2587.760455 " stroke="none" stroke-width="1" fill="#FF7F2A"/>
<path d="M5198.359690,4166.557060 L5233.926475,4282.377420 L5069.244468,4354.564990 L5044.185169,4243.640384 L5198.359690,4166.557060 " stroke="none" stroke-width="1" fill="#FF7F2A"/>
<path d="M3810.282109,5259.697285 L3645.162560,5437.059745 L3546.444412,5362.362143 L3633.530978,5281.847075 C3673.338567,5232.258102 3759.469033,5221.464554 3810.282109,5259.697285 " stroke="none" stroke-width="1" fill="#FF7F2A"/>
<path d="M2317.670994,4839.741633 L2076.053084,4821.229656 L2072.904262,4697.475507 L2190.151063,4715.362203 C2253.740909,4715.566810 2315.881111,4776.176653 2317.670994,4839.741633 " stroke="none" stroke-width="1" fill="#FF7F2A"/>
<path d="M1715.377735,3410.933206 L1579.204679,3210.486688 L1673.996310,3130.865390 L1733.114113,3233.684803 C1772.601765,3283.528917 1763.958864,3369.901702 1715.377735,3410.933206 " stroke="none" stroke-width="1" fill="#FF7F2A"/>
<path d="M2456.941442,2049.193891 L2528.754328,1817.753149 L2650.106380,1842.221163 L2606.578274,1952.548178 C2592.228725,2014.498164 2519.311001,2061.593423 2456.941442,2049.193891 " stroke="none" stroke-width="1" fill="#FF7F2A"/>
<path d="M3983.949517,1779.941168 L4209.671778,1691.785801 L4266.203681,1801.918213 L4152.807217,1836.674338 C4095.425970,1864.080593 4013.141957,1836.434635 3983.949517,1779.941168 " stroke="none" stroke-width="1" fill="#FF7F2A"/>
<path d="M5146.533735,2805.927828 L5356.191904,2927.440625 L5305.333982,3040.305483 L5207.459011,2973.318647 C5150.255315,2945.543702 5120.566552,2863.974497 5146.533735,2805.927828 " stroke="none" stroke-width="1" fill="#FF7F2A"/>
<path d="M5069.244468,4354.564990 L5104.961668,4594.244337 L4985.010973,4624.852100 L4976.359344,4506.564757 C4962.408749,4444.523712 5007.671481,4370.454535 5069.244468,4354.564990 " stroke="none" stroke-width="1" fill="#FF7F2A"/>
<path d="M5137.771745,4005.185679 L5198.359690,4166.557060 L5044.185169,4243.640384 C5010.678403,4159.102250 5055.709013,4044.366128 5137.771745,4005.185679 " stroke="none" stroke-width="1" fill="#DDFF55"/>
<path d="M4126.163913,5095.439630 L4037.774652,5243.422603 L3881.382241,5170.944776 C3926.585689,5092.039466 4044.366128,5055.709013 4126.163913,5095.439630 " stroke="none" stroke-width="1" fill="#DDFF55"/>
<path d="M2643.041883,4984.294999 L2472.234333,5007.455367 L2431.390707,4839.993670 C2521.265251,4826.138493 2623.104445,4895.571281 2643.041883,4984.294999 " stroke="none" stroke-width="1" fill="#DDFF55"/>
<path d="M1805.226794,3755.445960 L1680.622524,3636.343493 L1786.083766,3500.000000 C1852.952041,3561.628187 1862.163001,3684.539910 1805.226794,3755.445960 " stroke="none" stroke-width="1" fill="#DDFF55"/>
<path d="M2243.610496,2334.240903 L2259.039062,2162.562188 L2431.390707,2160.006330 C2424.899538,2250.710598 2334.546223,2334.546223 2243.610496,2334.240903 " stroke="none" stroke-width="1" fill="#DDFF55"/>
<path d="M3628.081121,1790.876223 L3771.924498,1695.898834 L3881.382241,1829.055224 C3806.419611,1880.533410 3684.539910,1862.163001 3628.081121,1790.876223 " stroke="none" stroke-width="1" fill="#DDFF55"/>
<path d="M4916.104049,2534.516607 L5080.045241,2587.760455 L5044.185169,2756.359616 C4957.199467,2729.847596 4895.571281,2623.104445 4916.104049,2534.516607 " stroke="none" stroke-width="1" fill="#DDFF55"/>
<path d="M5044.185169,4243.640384 L5069.244468,4354.564990 C5007.671481,4370.454535 4962.408749,4444.523712 4976.359344,4506.564757 L4985.010973,4624.852100 L4756.389504,4665.759097 L4749.060039,4351.594715 L5044.185169,4243.640384 " stroke="none" stroke-width="1" fill="#DDFF55"/>
<path d="M3881.382241,5170.944776 L3810.282109,5259.697285 C3759.469033,5221.464554 3673.338567,5232.258102 3633.530978,5281.847075 L3546.444412,5362.362143 L3371.918879,5209.123777 L3612.972638,5007.515083 L3881.382241,5170.944776 " stroke="none" stroke-width="1" fill="#DDFF55"/>
<path d="M2431.390707,4839.993670 L2317.670994,4839.741633 C2315.881111,4776.176653 2253.740909,4715.566810 2190.151063,4715.362203 L2072.904262,4697.475507 L2083.895951,4465.483393 L2391.814536,4528.245845 L2431.390707,4839.993670 " stroke="none" stroke-width="1" fill="#DDFF55"/>
<path d="M1786.083766,3500.000000 L1715.377735,3410.933206 C1763.958864,3369.901702 1772.601765,3283.528917 1733.114113,3233.684803 L1673.996310,3130.865390 L1862.228255,2994.814321 L2005.142691,3274.686514 L1786.083766,3500.000000 " stroke="none" stroke-width="1" fill="#DDFF55"/>
<path d="M2431.390707,2160.006330 L2456.941442,2049.193891 C2519.311001,2061.593423 2592.228725,2014.498164 2606.578274,1952.548178 L2650.106380,1842.221163 L2873.836087,1904.560370 L2744.128890,2190.792833 L2431.390707,2160.006330 " stroke="none" stroke-width="1" fill="#DDFF55"/>
<path d="M3881.382241,1829.055224 L3983.949517,1779.941168 C4013.141957,1836.434635 4095.425970,1864.080593 4152.807217,1836.674338 L4266.203681,1801.918213 L4356.958117,2015.705001 L4052.301451,2092.758852 L3881.382241,1829.055224 " stroke="none" stroke-width="1" fill="#DDFF55"/>
<path d="M5044.185169,2756.359616 L5146.533735,2805.927828 C5120.566552,2863.974497 5150.255315,2945.543702 5207.459011,2973.318647 L5305.333982,3040.305483 L5194.773206,3244.554040 L4944.579755,3054.406158 L5044.185169,2756.359616 " stroke="none" stroke-width="1" fill="#DDFF55"/>
<path d="M4756.389504,4665.759097 L4732.681794,4896.798278 L4500.487756,4891.593729 C4514.313015,4771.908290 4635.913835,4664.594930 4756.389504,4665.759097 " stroke="none" stroke-width="1" fill="#DDFF55"/>
<path d="M3371.918879,5209.123777 L3176.503659,5334.638916 L3035.802125,5149.857324 C3137.995876,5086.043696 3297.713712,5114.206260 3371.918879,5209.123777 " stroke="none" stroke-width="1" fill="#DDFF55"/>
<path d="M2083.895951,4465.483393 L1863.924867,4390.959031 L1920.666961,4165.744703 C2034.275226,4205.855849 2111.839289,4348.287352 2083.895951,4465.483393 " stroke="none" stroke-width="1" fill="#DDFF55"/>
<path d="M1862.228255,2994.814321 L1783.344019,2776.368823 L1994.801788,2680.312742 C2034.275226,2794.144151 1971.278195,2943.590767 1862.228255,2994.814321 " stroke="none" stroke-width="1" fill="#DDFF55"/>
<path d="M2873.836087,1904.560370 L2995.440139,1706.687651 L3202.381569,1812.122005 C3137.995876,1913.956304 2981.875801,1957.881682 2873.836087,1904.560370 " stroke="none" stroke-width="1" fill="#DDFF55"/>
<path d="M4356.958117,2015.705001 L4587.480125,1987.407254 L4634.074099,2214.937824 C4514.313015,2228.091710 4382.631496,2133.419145 4356.958117,2015.705001 " stroke="none" stroke-width="1" fill="#DDFF55"/>
<path d="M5194.773206,3244.554040 L5360.625396,3407.140047 L5211.785701,3585.431673 C5126.831765,3500.000000 5118.747672,3338.019864 5194.773206,3244.554040 " stroke="none" stroke-width="1" fill="#DDFF55"/>
<path d="M4500.487756,4891.593729 L4451.347625,5056.811371 L4281.906852,5025.165739 L4339.470094,4873.731908 L4500.487756,4891.593729 " stroke="none" stroke-width="1" fill="#DDFF55"/>
<path d="M3035.802125,5149.857324 L2875.991400,5214.449538 L2795.088357,5062.244678 L2949.374189,5012.831983 L3035.802125,5149.857324 " stroke="none" stroke-width="1" fill="#DDFF55"/>
<path d="M1920.666961,4165.744703 L1770.526378,4081.072234 L1839.082707,3922.921510 L1973.910750,4012.738719 L1920.666961,4165.744703 " stroke="none" stroke-width="1" fill="#DDFF55"/>
<path d="M1994.801788,2680.312742 L1967.390268,2510.135686 L2133.781655,2465.129819 L2147.623643,2626.542742 L1994.801788,2680.312742 " stroke="none" stroke-width="1" fill="#DDFF55"/>
<path d="M3202.381569,1812.122005 L3318.340546,1684.587156 L3457.270883,1786.616482 L3339.703516,1898.077895 L3202.381569,1812.122005 " stroke="none" stroke-width="1" fill="#DDFF55"/>
<path d="M4634.074099,2214.937824 L4806.084098,2226.081526 L4812.936007,2398.315881 L4652.489911,2375.893067 L4634.074099,2214.937824 " stroke="none" stroke-width="1" fill="#DDFF55"/>
<path d="M5211.785701,3585.431673 L5310.319685,3726.862489 L5179.933539,3839.605892 L5097.427897,3700.183687 L5211.785701,3585.431673 " stroke="none" stroke-width="1" fill="#DDFF55"/>
<path d="M4281.906852,5025.165739 C4263.261547,5084.928934 4183.310567,5121.004191 4126.163913,5095.439630 L4176.117296,4998.429851 L4281.906852,5025.165739 " stroke="none" stroke-width="1" fill="#DDFF55"/>
<path d="M2795.088357,5062.244678 C2736.738453,5084.928934 2658.685060,5044.913295 2643.041883,4984.294999 L2750.032608,4962.865519 L2795.088357,5062.244678 " stroke="none" stroke-width="1" fill="#DDFF55"/>
<path d="M1839.082707,3922.921510 C1784.966871,3891.445120 1767.586863,3805.471178 1805.226794,3755.445960 L1888.688662,3825.733614 L1839.082707,3922.921510 " stroke="none" stroke-width="1" fill="#DDFF55"/>
<path d="M2133.781655,2465.129819 C2124.650215,2403.195146 2181.031093,2336.003033 2243.610496,2334.240903 L2240.695018,2443.317654 L2133.781655,2465.129819 " stroke="none" stroke-width="1" fill="#DDFF55"/>
<path d="M3457.270883,1786.616482 C3500.000000,1740.861598 3587.685812,1743.048346 3628.081121,1790.876223 L3540.983711,1856.605053 L3457.270883,1786.616482 " stroke="none" stroke-width="1" fill="#DDFF55"/>
<path d="M4812.936007,2398.315881 C4875.349785,2403.195146 4928.311326,2473.114089 4916.104049,2534.516607 L4810.410834,2507.402366 L4812.936007,2398.315881 " stroke="none" stroke-width="1" fill="#DDFF55"/>
<path d="M5179.933539,3839.605892 C5215.033129,3891.445120 5193.389279,3976.445868 5137.771745,4005.185679 L5093.071871,3905.645943 L5179.933539,3839.605892 " stroke="none" stroke-width="1" fill="#DDFF55"/>
<path d="M5093.071871,3905.645943 L5137.771745,4005.185679 C5055.709013,4044.366128 5010.678403,4159.102250 5044.185169,4243.640384 L4749.060039,4351.594715 L4709.603132,4120.127343 L5093.071871,3905.645943 " stroke="none" stroke-width="1" fill="#00CCFF"/>
<path d="M4176.117296,4998.429851 L4126.163913,5095.439630 C4044.366128,5055.709013 3926.585689,5092.039466 3881.382241,5170.944776 L3612.972638,5007.515083 L3769.340138,4832.348884 L4176.117296,4998.429851 " stroke="none" stroke-width="1" fill="#00CCFF"/>
<path d="M2750.032608,4962.865519 L2643.041883,4984.294999 C2623.104445,4895.571281 2521.265251,4826.138493 2431.390707,4839.993670 L2391.814536,4528.245845 L2626.258526,4541.284541 L2750.032608,4962.865519 " stroke="none" stroke-width="1" fill="#00CCFF"/>
<path d="M1888.688662,3825.733614 L1805.226794,3755.445960 C1862.163001,3684.539910 1852.952041,3561.628187 1786.083766,3500.000000 L2005.142691,3274.686514 L2141.122065,3466.111700 L1888.688662,3825.733614 " stroke="none" stroke-width="1" fill="#00CCFF"/>
<path d="M2240.695018,2443.317654 L2243.610496,2334.240903 C2334.546223,2334.546223 2424.899538,2250.710598 2431.390707,2160.006330 L2744.128890,2190.792833 L2679.248406,2416.457440 L2240.695018,2443.317654 " stroke="none" stroke-width="1" fill="#00CCFF"/>
<path d="M3540.983711,1856.605053 L3628.081121,1790.876223 C3684.539910,1862.163001 3806.419611,1880.533410 3881.382241,1829.055224 L4052.301451,2092.758852 L3835.417437,2182.732828 L3540.983711,1856.605053 " stroke="none" stroke-width="1" fill="#00CCFF"/>
<path d="M4810.410834,2507.402366 L4916.104049,2534.516607 C4895.571281,2623.104445 4957.199467,2729.847596 5044.185169,2756.359616 L4944.579755,3054.406158 L4739.010297,2940.937264 L4810.410834,2507.402366 " stroke="none" stroke-width="1" fill="#00CCFF"/>
<path d="M4749.060039,4351.594715 L4756.389504,4665.759097 C4635.913835,4664.594930 4514.313015,4771.908290 4500.487756,4891.593729 L4339.470094,4873.731908 L4382.469955,4727.440964 C4398.630692,4544.227809 4566.306729,4372.318060 4749.060039,4351.594715 " stroke="none" stroke-width="1" fill="#00CCFF"/>
<path d="M3612.972638,5007.515083 L3371.918879,5209.123777 C3297.713712,5114.206260 3137.995876,5086.043696 3035.802125,5149.857324 L2949.374189,5012.831983 L3090.559029,4955.239717 C3243.876896,4853.643156 3482.825649,4877.553585 3612.972638,5007.515083 " stroke="none" stroke-width="1" fill="#00CCFF"/>
<path d="M2391.814536,4528.245845 L2083.895951,4465.483393 C2111.839289,4348.287352 2034.275226,4205.855849 1920.666961,4165.744703 L1973.910750,4012.738719 L2106.965505,4087.213281 C2281.989021,4143.737597 2412.277206,4345.463164 2391.814536,4528.245845 " stroke="none" stroke-width="1" fill="#00CCFF"/>
<path d="M2005.142691,3274.686514 L1862.228255,2994.814321 C1971.278195,2943.590767 2034.275226,2794.144151 1994.801788,2680.312742 L2147.623643,2626.542742 L2172.355369,2777.003268 C2237.288256,2949.084498 2160.806212,3176.721736 2005.142691,3274.686514 " stroke="none" stroke-width="1" fill="#00CCFF"/>
<path d="M2744.128890,2190.792833 L2873.836087,1904.560370 C2981.875801,1957.881682 3137.995876,1913.956304 3202.381569,1812.122005 L3339.703516,1898.077895 L3237.488718,2011.224541 C3143.435189,2169.282008 2917.775455,2251.415434 2744.128890,2190.792833 " stroke="none" stroke-width="1" fill="#00CCFF"/>
<path d="M4052.301451,2092.758852 L4356.958117,2015.705001 C4382.631496,2133.419145 4514.313015,2228.091710 4634.074099,2214.937824 L4652.489911,2375.893067 L4500.298417,2366.524099 C4318.082697,2391.537308 4113.171656,2266.318777 4052.301451,2092.758852 " stroke="none" stroke-width="1" fill="#00CCFF"/>
<path d="M4944.579755,3054.406158 L5194.773206,3244.554040 C5118.747672,3338.019864 5126.831765,3500.000000 5211.785701,3585.431673 L5097.427897,3700.183687 L5009.863006,3575.354130 C4876.697248,3448.487623 4846.837093,3210.209244 4944.579755,3054.406158 " stroke="none" stroke-width="1" fill="#00CCFF"/>
<path d="M4339.470094,4873.731908 L4281.906852,5025.165739 L4176.117296,4998.429851 L4198.519051,4950.489755 C4215.496517,4895.627588 4284.173391,4858.228156 4339.470094,4873.731908 " stroke="none" stroke-width="1" fill="#00CCFF"/>
<path d="M2949.374189,5012.831983 L2795.088357,5062.244678 L2750.032608,4962.865519 L2801.480949,4950.489755 C2854.959195,4929.557271 2927.018580,4959.932849 2949.374189,5012.831983 " stroke="none" stroke-width="1" fill="#00CCFF"/>
<path d="M1973.910750,4012.738719 L1839.082707,3922.921510 L1888.688662,3825.733614 L1930.441940,3858.241385 C1980.150756,3887.001171 2001.330464,3962.278329 1973.910750,4012.738719 " stroke="none" stroke-width="1" fill="#00CCFF"/>
<path d="M2147.623643,2626.542742 L2133.781655,2465.129819 L2240.695018,2443.317654 L2241.312163,2496.229945 C2249.819797,2553.025296 2204.171077,2616.518799 2147.623643,2626.542742 " stroke="none" stroke-width="1" fill="#00CCFF"/>
<path d="M3339.703516,1898.077895 L3457.270883,1786.616482 L3540.983711,1856.605053 L3500.000000,1890.077830 C3460.900030,1932.140688 3382.797298,1936.038633 3339.703516,1898.077895 " stroke="none" stroke-width="1" fill="#00CCFF"/>
<path d="M4652.489911,2375.893067 L4812.936007,2398.315881 L4810.410834,2507.402366 L4758.687837,2496.229945 C4701.423338,2491.886120 4649.679545,2433.253275 4652.489911,2375.893067 " stroke="none" stroke-width="1" fill="#00CCFF"/>
<path d="M5097.427897,3700.183687 L5179.933539,3839.605892 L5093.071871,3905.645943 L5069.558060,3858.241385 C5037.250368,3810.761866 5050.829645,3733.749959 5097.427897,3700.183687 " stroke="none" stroke-width="1" fill="#00CCFF"/>
<path d="M4709.603132,4120.127343 L4749.060039,4351.594715 C4566.306729,4372.318060 4398.630692,4544.227809 4382.469955,4727.440964 L4339.470094,4873.731908 C4284.173391,4858.228156 4215.496517,4895.627588 4198.519051,4950.489755 L4176.117296,4998.429851 L3769.340138,4832.348884 C3934.588216,4463.146423 4309.444024,4179.204182 4709.603132,4120.127343 " stroke="none" stroke-width="1" fill="#2A2AFF"/>
<path d="M3769.340138,4832.348884 L3612.972638,5007.515083 C3482.825649,4877.553585 3243.876896,4853.643156 3090.559029,4955.239717 L2949.374189,5012.831983 C2927.018580,4959.932849 2854.959195,4929.557271 2801.480949,4950.489755 L2750.032608,4962.865519 L2626.258526,4541.284541 C3017.943125,4440.286721 3473.656882,4556.325702 3769.340138,4832.348884 " stroke="none" stroke-width="1" fill="#2A2AFF"/>
<path d="M2626.258526,4541.284541 L2391.814536,4528.245845 C2412.277206,4345.463164 2281.989021,4143.737597 2106.965505,4087.213281 L1973.910750,4012.738719 C2001.330464,3962.278329 1980.150756,3887.001171 1930.441940,3858.241385 L1888.688662,3825.733614 L2141.122065,3466.111700 C2464.296693,3709.371940 2657.706645,4138.012423 2626.258526,4541.284541 " stroke="none" stroke-width="1" fill="#2A2AFF"/>
<path d="M2141.122065,3466.111700 L2005.142691,3274.686514 C2160.806212,3176.721736 2237.288256,2949.084498 2172.355369,2777.003268 L2147.623643,2626.542742 C2204.171077,2616.518799 2249.819797,2553.025296 2241.312163,2496.229945 L2240.695018,2443.317654 L2679.248406,2416.457440 C2690.555976,2820.795818 2476.020484,3239.262777 2141.122065,3466.111700 " stroke="none" stroke-width="1" fill="#2A2AFF"/>
<path d="M2679.248406,2416.457440 L2744.128890,2190.792833 C2917.775455,2251.415434 3143.435189,2169.282008 3237.488718,2011.224541 L3339.703516,1898.077895 C3382.797298,1936.038633 3460.900030,1932.140688 3500.000000,1890.077830 L3540.983711,1856.605053 L3835.417437,2182.732828 C3526.343118,2443.674298 3065.411784,2536.853577 2679.248406,2416.457440 " stroke="none" stroke-width="1" fill="#2A2AFF"/>
<path d="M3835.417437,2182.732828 L4052.301451,2092.758852 C4113.171656,2266.318777 4318.082697,2391.537308 4500.298417,2366.524099 L4652.489911,2375.893067 C4649.679545,2433.253275 4701.423338,2491.886120 4758.687837,2496.229945 L4810.410834,2507.402366 L4739.010297,2940.937264 C4342.293355,2861.987577 3982.056875,2559.713279 3835.417437,2182.732828 " stroke="none" stroke-width="1" fill="#2A2AFF"/>
<path d="M4739.010297,2940.937264 L4944.579755,3054.406158 C4846.837093,3210.209244 4876.697248,3448.487623 5009.863006,3575.354130 L5097.427897,3700.183687 C5050.829645,3733.749959 5037.250368,3810.761866 5069.558060,3858.241385 L5093.071871,3905.645943 L4709.603132,4120.127343 C4523.979516,3760.737223 4535.703307,3290.628060 4739.010297,2940.937264 " stroke="none" stroke-width="1" fill="#2A2AFF"/>
<path d="M4709.603132,4120.127343 M3769.340138,4832.348884 C3934.588216,4463.146423 4309.444024,4179.204182 4709.603132,4120.127343 C4523.979516,3760.737223 4535.703307,3290.628060 4739.010297,2940.937264 C4342.293355,2861.987577 3982.056875,2559.713279 3835.417437,2182.732828 C3526.343118,2443.674298 3065.411784,2536.853577 2679.248406,2416.457440 C2690.555976,2820.795818 2476.020484,3239.262777 2141.122065,3466.111700 C2464.296693,3709.371940 2657.706645,4138.012423 2626.258526,4541.284541 C3017.943125,4440.286721 3473.656882,4556.325702 3769.340138,4832.348884 " stroke="none" stroke-width="1" fill="#002255"/>
</svg>
