<?xml version="1.0" standalone="no"?>
<!DOCTYPE svg PUBLIC "-//W3C//DTD SVG 1.1//EN"
"http://www.w3.org/Graphics/SVG/1.1/DTD/svg11.dtd">
<svg width="7000" height="7000" xmlns="http://www.w3.org/2000/svg" version="1.1">
<path d="M5718.769065,3891.228850 C6170.713927,4625.800326 5417.763648,5673.090390 4577.504853,5478.630705 L4711.123543,5018.700887 L4775.070747,5019.570144 C4922.226311,5032.795423 5067.776088,4883.570607 5050.886230,4736.790498 C5312.993801,4703.247473 5494.392083,4370.144371 5380.363609,4131.768573 L5718.769065,3891.228850 " stroke="none" stroke-width="1" fill="#800066"/>
<path d="M4577.504853,5478.630705 C4284.976759,6289.973251 2996.715596,6354.267693 2624.857509,5576.083283 L3067.755012,5393.789031 L3106.945829,5444.326941 C3188.355883,5567.623619 3395.773344,5588.378867 3500.000000,5483.657943 C3689.646390,5667.668160 4063.176861,5601.804660 4178.450974,5364.028731 L4577.504853,5478.630705 " stroke="none" stroke-width="1" fill="#800066"/>
<path d="M2624.857509,5576.083283 C1808.136081,5853.239413 954.650965,4886.123206 1331.210311,4110.202804 L1749.875773,4342.815408 L1734.798718,4404.965894 C1689.159832,4545.489059 1802.255397,4720.595245 1949.113770,4736.790498 C1923.491379,4999.790510 2207.877977,5250.763171 2465.650917,5192.637235 L2624.857509,5576.083283 " stroke="none" stroke-width="1" fill="#800066"/>
<path d="M1331.210311,4110.202804 C605.303442,3644.468299 829.286073,2374.199674 1670.705984,2184.827168 L1749.875773,2657.184592 L1691.884176,2684.147071 C1553.563362,2736.079913 1487.173765,2933.678508 1566.076503,3058.594582 C1344.479515,3202.540016 1325.573330,3581.361306 1531.736817,3746.655377 L1331.210311,4110.202804 " stroke="none" stroke-width="1" fill="#800066"/>
<path d="M1670.705984,2184.827168 C1582.236352,1326.909610 2715.023241,710.026749 3387.697361,1249.803499 L3067.755012,1606.210969 L3010.517728,1577.682144 C2883.673380,1501.918174 2687.791341,1573.213405 2639.323075,1712.785949 C2388.618540,1629.282957 2080.656316,1850.692717 2079.965038,2114.936990 L1670.705984,2184.827168 " stroke="none" stroke-width="1" fill="#800066"/>
<path d="M3387.697361,1249.803499 C4003.284404,645.732307 5191.863919,1146.760587 5189.254916,2009.223691 L4711.123543,1981.299113 L4697.741414,1918.761771 C4677.889914,1772.352803 4500.018604,1663.657908 4360.676925,1712.785949 C4269.650473,1464.713987 3904.534046,1361.986153 3697.508550,1526.199299 L3387.697361,1249.803499 " stroke="none" stroke-width="1" fill="#800066"/>
<path d="M5189.254916,2009.223691 C6045.349035,2113.876794 6394.696558,3355.531701 5718.769065,3891.228850 L5442.491344,3500.000000 L5483.041386,3450.546035 C5585.131318,3343.741010 5559.211461,3136.905460 5433.923497,3058.594582 C5571.119902,2832.756897 5423.789388,2483.247623 5166.324095,2423.773794 L5189.254916,2009.223691 " stroke="none" stroke-width="1" fill="#800066"/>
<path d="M5442.491344,3500.000000 L5718.769065,3891.228850 L5380.363609,4131.768573 L5278.735590,3905.984791 C5364.225165,3852.730432 5385.371991,3712.430405 5319.377476,3636.343493 L5442.491344,3500.000000 " stroke="none" stroke-width="1" fill="#D40000"/>
<path d="M4711.123543,5018.700887 L4577.504853,5478.630705 L4178.450974,5364.028731 L4291.611810,5143.798860 C4386.549622,5177.433751 4509.425431,5106.491370 4527.765667,5007.455367 L4711.123543,5018.700887 " stroke="none" stroke-width="1" fill="#D40000"/>
<path d="M3067.755012,5393.789031 L2624.857509,5576.083283 L2465.650917,5192.637235 L2708.388190,5143.798860 C2741.284132,5238.995242 2873.360932,5290.831567 2962.225348,5243.422603 L3067.755012,5393.789031 " stroke="none" stroke-width="1" fill="#D40000"/>
<path d="M1749.875773,4342.815408 L1331.210311,4110.202804 L1531.736817,3746.655377 L1721.264410,3905.984791 C1667.347165,3991.057847 1709.168433,4126.639068 1801.640310,4166.557060 L1749.875773,4342.815408 " stroke="none" stroke-width="1" fill="#D40000"/>
<path d="M1749.875773,2657.184592 L1670.705984,2184.827168 L2079.965038,2114.936990 L2073.564808,2362.455894 C1973.435163,2373.343877 1893.508630,2490.574569 1919.954759,2587.760455 L1749.875773,2657.184592 " stroke="none" stroke-width="1" fill="#D40000"/>
<path d="M3067.755012,1606.210969 L3387.697361,1249.803499 L3697.508550,1526.199299 L3500.000000,1675.520910 C3429.057619,1604.024947 3287.569595,1614.628009 3228.075502,1695.898834 L3067.755012,1606.210969 " stroke="none" stroke-width="1" fill="#D40000"/>
<path d="M4711.123543,1981.299113 L5189.254916,2009.223691 L5166.324095,2423.773794 L4926.435192,2362.455894 C4938.101135,2262.413903 4841.594988,2158.405012 4740.960938,2162.562188 L4711.123543,1981.299113 " stroke="none" stroke-width="1" fill="#D40000"/>
<path d="M5380.363609,4131.768573 C5494.392083,4370.144371 5312.993801,4703.247473 5050.886230,4736.790498 L5032.609732,4489.864314 L5089.630721,4471.403113 C5189.794294,4447.714408 5255.892073,4318.785921 5216.655981,4223.631177 L5380.363609,4131.768573 " stroke="none" stroke-width="1" fill="#D40000"/>
<path d="M4178.450974,5364.028731 C4063.176861,5601.804660 3689.646390,5667.668160 3500.000000,5483.657943 L3681.659454,5315.412844 L3731.645008,5348.483277 C3812.616549,5412.024647 3954.628191,5383.316374 4004.559861,5293.312349 L4178.450974,5364.028731 " stroke="none" stroke-width="1" fill="#D40000"/>
<path d="M2465.650917,5192.637235 C2207.877977,5250.763171 1923.491379,4999.790510 1949.113770,4736.790498 L2193.915902,4773.918474 L2199.225879,4833.617832 C2200.032166,4936.541328 2311.020008,5029.671185 2412.519875,5012.592746 L2465.650917,5192.637235 " stroke="none" stroke-width="1" fill="#D40000"/>
<path d="M1531.736817,3746.655377 C1325.573330,3581.361306 1344.479515,3202.540016 1566.076503,3058.594582 L1689.680315,3273.137511 L1646.316194,3314.510958 C1566.350077,3379.313089 1562.738010,3524.152394 1639.374604,3592.859953 L1531.736817,3746.655377 " stroke="none" stroke-width="1" fill="#D40000"/>
<path d="M2079.965038,2114.936990 C2080.656316,1850.692717 2388.618540,1629.282957 2639.323075,1712.785949 L2548.652375,1943.188629 L2489.268224,1935.081116 C2388.745819,1912.964556 2273.253803,2000.446358 2267.318206,2103.201722 L2079.965038,2114.936990 " stroke="none" stroke-width="1" fill="#D40000"/>
<path d="M3697.508550,1526.199299 C3904.534046,1361.986153 4269.650473,1464.713987 4360.676925,1712.785949 L4124.008600,1785.550462 L4093.321896,1734.067112 C4047.938625,1641.686081 3907.534504,1605.934799 3823.496341,1665.361084 L3697.508550,1526.199299 " stroke="none" stroke-width="1" fill="#D40000"/>
<path d="M5166.324095,2423.773794 C5423.789388,2483.247623 5571.119902,2832.756897 5433.923497,3058.594582 L5229.473622,2918.927766 L5250.592079,2862.836591 C5294.522470,2769.755890 5234.933411,2637.692969 5136.075133,2609.040969 L5166.324095,2423.773794 " stroke="none" stroke-width="1" fill="#D40000"/>
<path d="M5050.886230,4736.790498 C5067.776088,4883.570607 4922.226311,5032.795423 4775.070747,5019.570144 L4711.123543,5018.700887 L4747.639886,4779.141992 L5050.886230,4736.790498 " stroke="none" stroke-width="1" fill="#D40000"/>
<path d="M3500.000000,5483.657943 C3395.773344,5588.378867 3188.355883,5567.623619 3106.945829,5444.326941 L3067.755012,5393.789031 L3277.817266,5272.976129 L3500.000000,5483.657943 " stroke="none" stroke-width="1" fill="#D40000"/>
<path d="M1949.113770,4736.790498 C1802.255397,4720.595245 1689.159832,4545.489059 1734.798718,4404.965894 L1749.875773,4342.815408 L1975.302776,4431.723079 L1949.113770,4736.790498 " stroke="none" stroke-width="1" fill="#D40000"/>
<path d="M1566.076503,3058.594582 C1487.173765,2933.678508 1553.563362,2736.079913 1691.884176,2684.147071 L1749.875773,2657.184592 L1820.916394,2888.863546 L1566.076503,3058.594582 " stroke="none" stroke-width="1" fill="#D40000"/>
<path d="M2639.323075,1712.785949 C2687.791341,1573.213405 2883.673380,1501.918174 3010.517728,1577.682144 L3067.755012,1606.210969 L2930.914214,1806.202229 L2639.323075,1712.785949 " stroke="none" stroke-width="1" fill="#D40000"/>
<path d="M4360.676925,1712.785949 C4500.018604,1663.657908 4677.889914,1772.352803 4697.741414,1918.761771 L4711.123543,1981.299113 L4469.445239,1999.005180 L4360.676925,1712.785949 " stroke="none" stroke-width="1" fill="#D40000"/>
<path d="M5433.923497,3058.594582 C5559.211461,3136.905460 5585.131318,3343.741010 5483.041386,3450.546035 L5442.491344,3500.000000 L5277.964225,3322.087845 L5433.923497,3058.594582 " stroke="none" stroke-width="1" fill="#D40000"/>
<path d="M5032.609732,4489.864314 L5050.886230,4736.790498 L4747.639886,4779.141992 L4756.389504,4665.759097 C4818.968907,4663.996967 4875.349785,4596.804854 4866.218345,4534.870181 L5032.609732,4489.864314 " stroke="none" stroke-width="1" fill="#FF7F2A"/>
<path d="M3681.659454,5315.412844 L3500.000000,5483.657943 L3277.817266,5272.976129 L3371.918879,5209.123777 C3412.314188,5256.951654 3500.000000,5259.138402 3542.729117,5213.383518 L3681.659454,5315.412844 " stroke="none" stroke-width="1" fill="#FF7F2A"/>
<path d="M2193.915902,4773.918474 L1949.113770,4736.790498 L1975.302776,4431.723079 L2083.895951,4465.483393 C2071.688674,4526.885911 2124.650215,4596.804854 2187.063993,4601.684119 L2193.915902,4773.918474 " stroke="none" stroke-width="1" fill="#FF7F2A"/>
<path d="M1689.680315,3273.137511 L1566.076503,3058.594582 L1820.916394,2888.863546 L1862.228255,2994.814321 C1806.610721,3023.554132 1784.966871,3108.554880 1820.066461,3160.394108 L1689.680315,3273.137511 " stroke="none" stroke-width="1" fill="#FF7F2A"/>
<path d="M2548.652375,1943.188629 L2639.323075,1712.785949 L2930.914214,1806.202229 L2873.836087,1904.560370 C2816.689433,1878.995809 2736.738453,1915.071066 2718.093148,1974.834261 L2548.652375,1943.188629 " stroke="none" stroke-width="1" fill="#FF7F2A"/>
<path d="M4124.008600,1785.550462 L4360.676925,1712.785949 L4469.445239,1999.005180 L4356.958117,2015.705001 C4341.314940,1955.086705 4263.261547,1915.071066 4204.911643,1937.755322 L4124.008600,1785.550462 " stroke="none" stroke-width="1" fill="#FF7F2A"/>
<path d="M5229.473622,2918.927766 L5433.923497,3058.594582 L5277.964225,3322.087845 L5194.773206,3244.554040 C5232.413137,3194.528822 5215.033129,3108.554880 5160.917293,3077.078490 L5229.473622,2918.927766 " stroke="none" stroke-width="1" fill="#FF7F2A"/>
<path d="M4747.639886,4779.141992 L4711.123543,5018.700887 L4527.765667,5007.455367 L4543.058558,4950.806109 C4554.564684,4856.740417 4653.005246,4774.138978 4747.639886,4779.141992 " stroke="none" stroke-width="1" fill="#FF7F2A"/>
<path d="M3277.817266,5272.976129 L3067.755012,5393.789031 L2962.225348,5243.422603 L3016.050483,5220.058832 C3096.767954,5170.405684 3222.725046,5195.868460 3277.817266,5272.976129 " stroke="none" stroke-width="1" fill="#FF7F2A"/>
<path d="M1975.302776,4431.723079 L1749.875773,4342.815408 L1801.640310,4166.557060 L1853.466265,4194.072172 C1942.613179,4226.221401 2001.238542,4340.574402 1975.302776,4431.723079 " stroke="none" stroke-width="1" fill="#FF7F2A"/>
<path d="M1820.916394,2888.863546 L1749.875773,2657.184592 L1919.954759,2587.760455 L1930.755532,2645.435010 C1961.202445,2735.177591 1908.349985,2852.310675 1820.916394,2888.863546 " stroke="none" stroke-width="1" fill="#FF7F2A"/>
<path d="M2930.914214,1806.202229 L3067.755012,1606.210969 L3228.075502,1695.898834 L3189.717891,1740.302715 C3138.537655,1820.060654 3014.006353,1851.770220 2930.914214,1806.202229 " stroke="none" stroke-width="1" fill="#FF7F2A"/>
<path d="M4469.445239,1999.005180 L4711.123543,1981.299113 L4740.960938,2162.562188 L4682.329006,2160.258367 C4588.061384,2169.972309 4485.625850,2092.380407 4469.445239,1999.005180 " stroke="none" stroke-width="1" fill="#FF7F2A"/>
<path d="M5277.964225,3322.087845 L5442.491344,3500.000000 L5319.377476,3636.343493 L5284.622265,3589.066794 C5218.252698,3521.421943 5215.048978,3392.956858 5277.964225,3322.087845 " stroke="none" stroke-width="1" fill="#FF7F2A"/>
<path d="M4527.765667,5007.455367 C4509.425431,5106.491370 4386.549622,5177.433751 4291.611810,5143.798860 L4356.958117,4984.294999 L4527.765667,5007.455367 " stroke="none" stroke-width="1" fill="#FF7F2A"/>
<path d="M2962.225348,5243.422603 C2873.360932,5290.831567 2741.284132,5238.995242 2708.388190,5143.798860 L2873.836087,5095.439630 L2962.225348,5243.422603 " stroke="none" stroke-width="1" fill="#FF7F2A"/>
<path d="M1801.640310,4166.557060 C1709.168433,4126.639068 1667.347165,3991.057847 1721.264410,3905.984791 L1862.228255,4005.185679 L1801.640310,4166.557060 " stroke="none" stroke-width="1" fill="#FF7F2A"/>
<path d="M1919.954759,2587.760455 C1893.508630,2490.574569 1973.435163,2373.343877 2073.564808,2362.455894 L2083.895951,2534.516607 L1919.954759,2587.760455 " stroke="none" stroke-width="1" fill="#FF7F2A"/>
<path d="M3228.075502,1695.898834 C3287.569595,1614.628009 3429.057619,1604.024947 3500.000000,1675.520910 L3371.918879,1790.876223 L3228.075502,1695.898834 " stroke="none" stroke-width="1" fill="#FF7F2A"/>
<path d="M4740.960938,2162.562188 C4841.594988,2158.405012 4938.101135,2262.413903 4926.435192,2362.455894 L4756.389504,2334.240903 L4740.960938,2162.562188 " stroke="none" stroke-width="1" fill="#FF7F2A"/>
<path d="M5319.377476,3636.343493 C5385.371991,3712.430405 5364.225165,3852.730432 5278.735590,3905.984791 L5194.773206,3755.445960 L5319.377476,3636.343493 " stroke="none" stroke-width="1" fill="#FF7F2A"/>
<path d="M4291.611810,5143.798860 L4178.450974,5364.028731 L4004.559861,5293.312349 L4126.163913,5095.439630 L4291.611810,5143.798860 " stroke="none" stroke-width="1" fill="#FF7F2A"/>
<path d="M2708.388190,5143.798860 L2465.650917,5192.637235 L2412.519875,5012.592746 L2643.041883,4984.294999 L2708.388190,5143.798860 " stroke="none" stroke-width="1" fill="#FF7F2A"/>
<path d="M1721.264410,3905.984791 L1531.736817,3746.655377 L1639.374604,3592.859953 L1805.226794,3755.445960 L1721.264410,3905.984791 " stroke="none" stroke-width="1" fill="#FF7F2A"/>
<path d="M2073.564808,2362.455894 L2079.965038,2114.936990 L2267.318206,2103.201722 L2243.610496,2334.240903 L2073.564808,2362.455894 " stroke="none" stroke-width="1" fill="#FF7F2A"/>
<path d="M3500.000000,1675.520910 L3697.508550,1526.199299 L3823.496341,1665.361084 L3628.081121,1790.876223 L3500.000000,1675.520910 " stroke="none" stroke-width="1" fill="#FF7F2A"/>
<path d="M4926.435192,2362.455894 L5166.324095,2423.773794 L5136.075133,2609.040969 L4916.104049,2534.516607 L4926.435192,2362.455894 " stroke="none" stroke-width="1" fill="#FF7F2A"/>
<path d="M5278.735590,3905.984791 L5380.363609,4131.768573 L5216.655981,4223.631177 L5137.771745,4005.185679 L5278.735590,3905.984791 " stroke="none" stroke-width="1" fill="#FF7F2A"/>
<path d="M4004.559861,5293.312349 C3954.628191,5383.316374 3812.616549,5412.024647 3731.645008,5348.483277 L3681.659454,5315.412844 L3797.618431,5187.877995 L4004.559861,5293.312349 " stroke="none" stroke-width="1" fill="#FF7F2A"/>
<path d="M2412.519875,5012.592746 C2311.020008,5029.671185 2200.032166,4936.541328 2199.225879,4833.617832 L2193.915902,4773.918474 L2365.925901,4785.062176 L2412.519875,5012.592746 " stroke="none" stroke-width="1" fill="#FF7F2A"/>
<path d="M1639.374604,3592.859953 C1562.738010,3524.152394 1566.350077,3379.313089 1646.316194,3314.510958 L1689.680315,3273.137511 L1788.214299,3414.568327 L1639.374604,3592.859953 " stroke="none" stroke-width="1" fill="#FF7F2A"/>
<path d="M2267.318206,2103.201722 C2273.253803,2000.446358 2388.745819,1912.964556 2489.268224,1935.081116 L2548.652375,1943.188629 L2499.512244,2108.406271 L2267.318206,2103.201722 " stroke="none" stroke-width="1" fill="#FF7F2A"/>
<path d="M3823.496341,1665.361084 C3907.534504,1605.934799 4047.938625,1641.686081 4093.321896,1734.067112 L4124.008600,1785.550462 L3964.197875,1850.142676 L3823.496341,1665.361084 " stroke="none" stroke-width="1" fill="#FF7F2A"/>
<path d="M5136.075133,2609.040969 C5234.933411,2637.692969 5294.522470,2769.755890 5250.592079,2862.836591 L5229.473622,2918.927766 L5079.333039,2834.255297 L5136.075133,2609.040969 " stroke="none" stroke-width="1" fill="#FF7F2A"/>
<path d="M5216.655981,4223.631177 C5255.892073,4318.785921 5189.794294,4447.714408 5089.630721,4471.403113 L5032.609732,4489.864314 L5005.198212,4319.687258 L5216.655981,4223.631177 " stroke="none" stroke-width="1" fill="#FF7F2A"/>
<path d="M5005.198212,4319.687258 L5032.609732,4489.864314 L4866.218345,4534.870181 C4850.126840,4445.368991 4916.999125,4341.830442 5005.198212,4319.687258 " stroke="none" stroke-width="1" fill="#DDFF55"/>
<path d="M3797.618431,5187.877995 L3681.659454,5315.412844 L3542.729117,5213.383518 C3602.671076,5144.999594 3725.314961,5132.727222 3797.618431,5187.877995 " stroke="none" stroke-width="1" fill="#DDFF55"/>
<path d="M2365.925901,4785.062176 L2193.915902,4773.918474 L2187.063993,4601.684119 C2277.901898,4605.911950 2363.964036,4694.147102 2365.925901,4785.062176 " stroke="none" stroke-width="1" fill="#DDFF55"/>
<path d="M1788.214299,3414.568327 L1689.680315,3273.137511 L1820.066461,3160.394108 C1873.397517,3234.050052 1858.071363,3356.349858 1788.214299,3414.568327 " stroke="none" stroke-width="1" fill="#DDFF55"/>
<path d="M2499.512244,2108.406271 L2548.652375,1943.188629 L2718.093148,1974.834261 C2693.757982,2062.453889 2588.584443,2126.724101 2499.512244,2108.406271 " stroke="none" stroke-width="1" fill="#DDFF55"/>
<path d="M3964.197875,1850.142676 L4124.008600,1785.550462 L4204.911643,1937.755322 C4121.235131,1973.359268 4005.412027,1931.203106 3964.197875,1850.142676 " stroke="none" stroke-width="1" fill="#DDFF55"/>
<path d="M5079.333039,2834.255297 L5229.473622,2918.927766 L5160.917293,3077.078490 C5080.909555,3033.856256 5041.654046,2917.018169 5079.333039,2834.255297 " stroke="none" stroke-width="1" fill="#DDFF55"/>
<path d="M4866.218345,4534.870181 C4875.349785,4596.804854 4818.968907,4663.996967 4756.389504,4665.759097 L4759.304982,4556.682346 L4866.218345,4534.870181 " stroke="none" stroke-width="1" fill="#DDFF55"/>
<path d="M3542.729117,5213.383518 C3500.000000,5259.138402 3412.314188,5256.951654 3371.918879,5209.123777 L3459.016289,5143.394947 L3542.729117,5213.383518 " stroke="none" stroke-width="1" fill="#DDFF55"/>
<path d="M2187.063993,4601.684119 C2124.650215,4596.804854 2071.688674,4526.885911 2083.895951,4465.483393 L2189.589166,4492.597634 L2187.063993,4601.684119 " stroke="none" stroke-width="1" fill="#DDFF55"/>
<path d="M1820.066461,3160.394108 C1784.966871,3108.554880 1806.610721,3023.554132 1862.228255,2994.814321 L1906.928129,3094.354057 L1820.066461,3160.394108 " stroke="none" stroke-width="1" fill="#DDFF55"/>
<path d="M2718.093148,1974.834261 C2736.738453,1915.071066 2816.689433,1878.995809 2873.836087,1904.560370 L2823.882704,2001.570149 L2718.093148,1974.834261 " stroke="none" stroke-width="1" fill="#DDFF55"/>
<path d="M4204.911643,1937.755322 C4263.261547,1915.071066 4341.314940,1955.086705 4356.958117,2015.705001 L4249.967392,2037.134481 L4204.911643,1937.755322 " stroke="none" stroke-width="1" fill="#DDFF55"/>
<path d="M5160.917293,3077.078490 C5215.033129,3108.554880 5232.413137,3194.528822 5194.773206,3244.554040 L5111.311338,3174.266386 L5160.917293,3077.078490 " stroke="none" stroke-width="1" fill="#DDFF55"/>
<path d="M4756.389504,4665.759097 L4747.639886,4779.141992 C4653.005246,4774.138978 4554.564684,4856.740417 4543.058558,4950.806109 L4527.765667,5007.455367 L4356.958117,4984.294999 L4442.555858,4681.927661 L4756.389504,4665.759097 " stroke="none" stroke-width="1" fill="#DDFF55"/>
<path d="M3371.918879,5209.123777 L3277.817266,5272.976129 C3222.725046,5195.868460 3096.767954,5170.405684 3016.050483,5220.058832 L2962.225348,5243.422603 L2873.836087,5095.439630 L3163.605709,4973.839687 L3371.918879,5209.123777 " stroke="none" stroke-width="1" fill="#DDFF55"/>
<path d="M2083.895951,4465.483393 L1975.302776,4431.723079 C2001.238542,4340.574402 1942.613179,4226.221401 1853.466265,4194.072172 L1801.640310,4166.557060 L1862.228255,4005.185679 L2137.967323,4155.920367 L2083.895951,4465.483393 " stroke="none" stroke-width="1" fill="#DDFF55"/>
<path d="M1862.228255,2994.814321 L1820.916394,2888.863546 C1908.349985,2852.310675 1961.202445,2735.177591 1930.755532,2645.435010 L1919.954759,2587.760455 L2083.895951,2534.516607 L2137.967323,2844.079633 L1862.228255,2994.814321 " stroke="none" stroke-width="1" fill="#DDFF55"/>
<path d="M2873.836087,1904.560370 L2930.914214,1806.202229 C3014.006353,1851.770220 3138.537655,1820.060654 3189.717891,1740.302715 L3228.075502,1695.898834 L3371.918879,1790.876223 L3163.605709,2026.160313 L2873.836087,1904.560370 " stroke="none" stroke-width="1" fill="#DDFF55"/>
<path d="M4356.958117,2015.705001 L4469.445239,1999.005180 C4485.625850,2092.380407 4588.061384,2169.972309 4682.329006,2160.258367 L4740.960938,2162.562188 L4756.389504,2334.240903 L4442.555858,2318.072339 L4356.958117,2015.705001 " stroke="none" stroke-width="1" fill="#DDFF55"/>
<path d="M5194.773206,3244.554040 L5277.964225,3322.087845 C5215.048978,3392.956858 5218.252698,3521.421943 5284.622265,3589.066794 L5319.377476,3636.343493 L5194.773206,3755.445960 L5011.742220,3500.000000 L5194.773206,3244.554040 " stroke="none" stroke-width="1" fill="#DDFF55"/>
<path d="M4356.958117,4984.294999 L4291.611810,5143.798860 L4126.163913,5095.439630 C4159.102250,5010.678403 4270.152404,4957.199467 4356.958117,4984.294999 " stroke="none" stroke-width="1" fill="#DDFF55"/>
<path d="M2873.836087,5095.439630 L2708.388190,5143.798860 L2643.041883,4984.294999 C2729.847596,4957.199467 2840.897750,5010.678403 2873.836087,5095.439630 " stroke="none" stroke-width="1" fill="#DDFF55"/>
<path d="M1862.228255,4005.185679 L1721.264410,3905.984791 L1805.226794,3755.445960 C1880.533410,3806.419611 1907.960534,3926.585689 1862.228255,4005.185679 " stroke="none" stroke-width="1" fill="#DDFF55"/>
<path d="M2083.895951,2534.516607 L2073.564808,2362.455894 L2243.610496,2334.240903 C2250.710598,2424.899538 2173.861507,2521.265251 2083.895951,2534.516607 " stroke="none" stroke-width="1" fill="#DDFF55"/>
<path d="M3371.918879,1790.876223 L3500.000000,1675.520910 L3628.081121,1790.876223 C3561.628187,1852.952041 3438.371813,1852.952041 3371.918879,1790.876223 " stroke="none" stroke-width="1" fill="#DDFF55"/>
<path d="M4756.389504,2334.240903 L4926.435192,2362.455894 L4916.104049,2534.516607 C4826.138493,2521.265251 4749.289402,2424.899538 4756.389504,2334.240903 " stroke="none" stroke-width="1" fill="#DDFF55"/>
<path d="M5194.773206,3755.445960 L5278.735590,3905.984791 L5137.771745,4005.185679 C5092.039466,3926.585689 5119.466590,3806.419611 5194.773206,3755.445960 " stroke="none" stroke-width="1" fill="#DDFF55"/>
<path d="M4126.163913,5095.439630 L4004.559861,5293.312349 L3797.618431,5187.877995 L3927.002641,5017.657602 L4126.163913,5095.439630 " stroke="none" stroke-width="1" fill="#DDFF55"/>
<path d="M2643.041883,4984.294999 L2412.519875,5012.592746 L2365.925901,4785.062176 L2579.679299,4780.088145 L2643.041883,4984.294999 " stroke="none" stroke-width="1" fill="#DDFF55"/>
<path d="M1805.226794,3755.445960 L1639.374604,3592.859953 L1788.214299,3414.568327 L1925.376216,3578.586206 L1805.226794,3755.445960 " stroke="none" stroke-width="1" fill="#DDFF55"/>
<path d="M2243.610496,2334.240903 L2267.318206,2103.201722 L2499.512244,2108.406271 L2456.796959,2317.907251 L2243.610496,2334.240903 " stroke="none" stroke-width="1" fill="#DDFF55"/>
<path d="M3628.081121,1790.876223 L3823.496341,1665.361084 L3964.197875,1850.142676 L3773.770869,1947.368246 L3628.081121,1790.876223 " stroke="none" stroke-width="1" fill="#DDFF55"/>
<path d="M4916.104049,2534.516607 L5136.075133,2609.040969 L5079.333039,2834.255297 L4884.589731,2745.992620 L4916.104049,2534.516607 " stroke="none" stroke-width="1" fill="#DDFF55"/>
<path d="M5137.771745,4005.185679 L5216.655981,4223.631177 L5005.198212,4319.687258 L4952.784285,4112.399930 L5137.771745,4005.185679 " stroke="none" stroke-width="1" fill="#DDFF55"/>
<path d="M4952.784285,4112.399930 L5005.198212,4319.687258 C4916.999125,4341.830442 4850.126840,4445.368991 4866.218345,4534.870181 L4759.304982,4556.682346 L4756.746039,4451.948132 C4730.038804,4316.351982 4822.000957,4157.068861 4952.784285,4112.399930 " stroke="none" stroke-width="1" fill="#00CCFF"/>
<path d="M3927.002641,5017.657602 L3797.618431,5187.877995 C3725.314961,5132.727222 3602.671076,5144.999594 3542.729117,5213.383518 L3459.016289,5143.394947 L3539.305320,5076.093571 C3628.666970,4970.670197 3810.536993,4943.257702 3927.002641,5017.657602 " stroke="none" stroke-width="1" fill="#00CCFF"/>
<path d="M2579.679299,4780.088145 L2365.925901,4785.062176 C2363.964036,4694.147102 2277.901898,4605.911950 2187.063993,4601.684119 L2189.589166,4492.597634 L2292.266893,4513.408405 C2430.406283,4517.543758 2565.232340,4642.644056 2579.679299,4780.088145 " stroke="none" stroke-width="1" fill="#00CCFF"/>
<path d="M1925.376216,3578.586206 L1788.214299,3414.568327 C1858.071363,3356.349858 1873.397517,3234.050052 1820.066461,3160.394108 L1906.928129,3094.354057 L1954.676129,3187.606040 C2037.571481,3298.186115 2023.826800,3481.596130 1925.376216,3578.586206 " stroke="none" stroke-width="1" fill="#00CCFF"/>
<path d="M2456.796959,2317.907251 L2499.512244,2108.406271 C2588.584443,2126.724101 2693.757982,2062.453889 2718.093148,1974.834261 L2823.882704,2001.570149 L2780.745759,2097.042699 C2745.975182,2230.798444 2594.009789,2334.406694 2456.796959,2317.907251 " stroke="none" stroke-width="1" fill="#00CCFF"/>
<path d="M3773.770869,1947.368246 L3964.197875,1850.142676 C4005.412027,1931.203106 4121.235131,1973.359268 4204.911643,1937.755322 L4249.967392,2037.134481 L4148.428502,2062.934820 C4022.174950,2119.145432 3846.421885,2064.932791 3773.770869,1947.368246 " stroke="none" stroke-width="1" fill="#00CCFF"/>
<path d="M4884.589731,2745.992620 L5079.333039,2834.255297 C5041.654046,2917.018169 5080.909555,3033.856256 5160.917293,3077.078490 L5111.311338,3174.266386 L5027.831358,3110.966333 C4905.166330,3047.304074 4837.971236,2876.093766 4884.589731,2745.992620 " stroke="none" stroke-width="1" fill="#00CCFF"/>
<path d="M4759.304982,4556.682346 L4756.389504,4665.759097 L4442.555858,4681.927661 C4446.435304,4627.917674 4501.480866,4579.339677 4555.554078,4582.206140 L4759.304982,4556.682346 " stroke="none" stroke-width="1" fill="#00CCFF"/>
<path d="M3459.016289,5143.394947 L3371.918879,5209.123777 L3163.605709,4973.839687 C3208.251213,4943.198084 3280.551367,4955.946551 3312.024372,5000.009901 L3459.016289,5143.394947 " stroke="none" stroke-width="1" fill="#00CCFF"/>
<path d="M2189.589166,4492.597634 L2083.895951,4465.483393 L2137.967323,4155.920367 C2189.759910,4171.720901 2224.871164,4236.195976 2210.044148,4288.275612 L2189.589166,4492.597634 " stroke="none" stroke-width="1" fill="#00CCFF"/>
<path d="M1906.928129,3094.354057 L1862.228255,2994.814321 L2137.967323,2844.079633 C2157.906118,2894.424179 2129.388983,2962.074816 2079.426991,2982.953709 L1906.928129,3094.354057 " stroke="none" stroke-width="1" fill="#00CCFF"/>
<path d="M2823.882704,2001.570149 L2873.836087,1904.560370 L3163.605709,2026.160313 C3136.676393,2073.138402 3066.004853,2093.022290 3018.530284,2066.978209 L2823.882704,2001.570149 " stroke="none" stroke-width="1" fill="#00CCFF"/>
<path d="M4249.967392,2037.134481 L4356.958117,2015.705001 L4442.555858,2318.072339 C4389.036755,2326.308511 4329.427920,2283.452678 4320.190094,2230.097346 L4249.967392,2037.134481 " stroke="none" stroke-width="1" fill="#00CCFF"/>
<path d="M5111.311338,3174.266386 L5194.773206,3244.554040 L5011.742220,3500.000000 C4971.934307,3463.292250 4968.274846,3389.968012 5004.230034,3349.479082 L5111.311338,3174.266386 " stroke="none" stroke-width="1" fill="#00CCFF"/>
<path d="M4442.555858,4681.927661 L4356.958117,4984.294999 C4270.152404,4957.199467 4159.102250,5010.678403 4126.163913,5095.439630 L3927.002641,5017.657602 L4122.575900,4643.241061 L4442.555858,4681.927661 " stroke="none" stroke-width="1" fill="#00CCFF"/>
<path d="M3163.605709,4973.839687 L2873.836087,5095.439630 C2840.897750,5010.678403 2729.847596,4957.199467 2643.041883,4984.294999 L2579.679299,4780.088145 L2994.347871,4699.548581 L3163.605709,4973.839687 " stroke="none" stroke-width="1" fill="#00CCFF"/>
<path d="M2137.967323,4155.920367 L1862.228255,4005.185679 C1907.960534,3926.585689 1880.533410,3806.419611 1805.226794,3755.445960 L1925.376216,3578.586206 L2246.886208,3852.571553 L2137.967323,4155.920367 " stroke="none" stroke-width="1" fill="#00CCFF"/>
<path d="M2137.967323,2844.079633 L2083.895951,2534.516607 C2173.861507,2521.265251 2250.710598,2424.899538 2243.610496,2334.240903 L2456.796959,2317.907251 L2443.044790,2740.100955 L2137.967323,2844.079633 " stroke="none" stroke-width="1" fill="#00CCFF"/>
<path d="M3163.605709,2026.160313 L3371.918879,1790.876223 C3438.371813,1852.952041 3561.628187,1852.952041 3628.081121,1790.876223 L3773.770869,1947.368246 L3435.112203,2199.849836 L3163.605709,2026.160313 " stroke="none" stroke-width="1" fill="#00CCFF"/>
<path d="M4442.555858,2318.072339 L4756.389504,2334.240903 C4749.289402,2424.899538 4826.138493,2521.265251 4916.104049,2534.516607 L4884.589731,2745.992620 L4476.041450,2638.638309 L4442.555858,2318.072339 " stroke="none" stroke-width="1" fill="#00CCFF"/>
<path d="M5011.742220,3500.000000 L5194.773206,3755.445960 C5119.466590,3806.419611 5092.039466,3926.585689 5137.771745,4005.185679 L4952.784285,4112.399930 L4781.991578,3726.049704 L5011.742220,3500.000000 " stroke="none" stroke-width="1" fill="#00CCFF"/>
<path d="M4781.991578,3726.049704 L4952.784285,4112.399930 C4822.000957,4157.068861 4730.038804,4316.351982 4756.746039,4451.948132 L4759.304982,4556.682346 L4555.554078,4582.206140 C4501.480866,4579.339677 4446.435304,4627.917674 4442.555858,4681.927661 L4122.575900,4643.241061 C4166.658366,4255.415763 4428.401049,3891.353860 4781.991578,3726.049704 " stroke="none" stroke-width="1" fill="#2A2AFF"/>
<path d="M4122.575900,4643.241061 L3927.002641,5017.657602 C3810.536993,4943.257702 3628.666970,4970.670197 3539.305320,5076.093571 L3459.016289,5143.394947 L3312.024372,5000.009901 C3280.551367,4955.946551 3208.251213,4943.198084 3163.605709,4973.839687 L2994.347871,4699.548581 C3325.046867,4492.208523 3772.875818,4469.858309 4122.575900,4643.241061 " stroke="none" stroke-width="1" fill="#2A2AFF"/>
<path d="M2994.347871,4699.548581 L2579.679299,4780.088145 C2565.232340,4642.644056 2430.406283,4517.543758 2292.266893,4513.408405 L2189.589166,4492.597634 L2210.044148,4288.275612 C2224.871164,4236.195976 2189.759910,4171.720901 2137.967323,4155.920367 L2246.886208,3852.571553 C2615.178645,3981.848028 2911.869530,4318.039670 2994.347871,4699.548581 " stroke="none" stroke-width="1" fill="#2A2AFF"/>
<path d="M2246.886208,3852.571553 L1925.376216,3578.586206 C2023.826800,3481.596130 2037.571481,3298.186115 1954.676129,3187.606040 L1906.928129,3094.354057 L2079.426991,2982.953709 C2129.388983,2962.074816 2157.906118,2894.424179 2137.967323,2844.079633 L2443.044790,2740.100955 C2571.598951,3108.646140 2493.737482,3550.220474 2246.886208,3852.571553 " stroke="none" stroke-width="1" fill="#2A2AFF"/>
<path d="M2443.044790,2740.100955 L2456.796959,2317.907251 C2594.009789,2334.406694 2745.975182,2230.798444 2780.745759,2097.042699 L2823.882704,2001.570149 L3018.530284,2066.978209 C3066.004853,2093.022290 3136.676393,2073.138402 3163.605709,2026.160313 L3435.112203,2199.849836 C3227.124182,2530.141691 2833.341634,2744.584237 2443.044790,2740.100955 " stroke="none" stroke-width="1" fill="#2A2AFF"/>
<path d="M3435.112203,2199.849836 L3773.770869,1947.368246 C3846.421885,2064.932791 4022.174950,2119.145432 4148.428502,2062.934820 L4249.967392,2037.134481 L4320.190094,2230.097346 C4329.427920,2283.452678 4389.036755,2326.308511 4442.555858,2318.072339 L4476.041450,2638.638309 C4088.130470,2681.960330 3674.953133,2507.791477 3435.112203,2199.849836 " stroke="none" stroke-width="1" fill="#2A2AFF"/>
<path d="M4476.041450,2638.638309 L4884.589731,2745.992620 C4837.971236,2876.093766 4905.166330,3047.304074 5027.831358,3110.966333 L5111.311338,3174.266386 L5004.230034,3349.479082 C4968.274846,3389.968012 4971.934307,3463.292250 5011.742220,3500.000000 L4781.991578,3726.049704 C4506.262518,3449.779526 4384.821355,3018.151972 4476.041450,2638.638309 " stroke="none" stroke-width="1" fill="#2A2AFF"/>
<path d="M4122.575900,4643.241061 M4122.575900,4643.241061 C4166.658366,4255.415763 4428.401049,3891.353860 4781.991578,3726.049704 C4506.262518,3449.779526 4384.821355,3018.151972 4476.041450,2638.638309 C4088.130470,2681.960330 3674.953133,2507.791477 3435.112203,2199.849836 C3227.124182,2530.141691 2833.341634,2744.584237 2443.044790,2740.100955 C2571.598951,3108.646140 2493.737482,3550.220474 2246.886208,3852.571553 C2615.178645,3981.848028 2911.869530,4318.039670 2994.347871,4699.548581 C3325.046867,4492.208523 3772.875818,4469.858309 4122.575900,4643.241061 " stroke="none" stroke-width="1" fill="#002255"/>
</svg>
