<?xml version="1.0" standalone="no"?>
<!DOCTYPE svg PUBLIC "-//W3C//DTD SVG 1.1//EN"
"http://www.w3.org/Graphics/SVG/1.1/DTD/svg11.dtd">
<svg width="2274" height="701" xmlns="http://www.w3.org/2000/svg" version="1.1">
<path d="M59.864793,453.262007 L213.802833,607.200047 L367.740873,453.262007 L367.740873,453.262007 " stroke="#FF0000" stroke-width="1.0" fill="none"/>
<path d="M59.864793,453.262007 L111.177473,401.949327 L136.833813,376.292987 L171.042267,342.084533 L196.698607,316.428193 L222.354947,342.084533 L239.459173,359.188760 L256.563400,342.084533 L307.876080,290.771853 L367.740873,230.907060 L367.740873,230.907060 " stroke="#00FF00" stroke-width="1.0" fill="none"/>
<path d="M59.864793,230.907060 L213.802833,76.969020 L367.740873,230.907060 L367.740873,230.907060 " stroke="#0000FF" stroke-width="1.0" fill="none"/>
<path d="M59.864793,230.907060 L136.833813,307.876080 L171.042267,342.084533 L196.698607,367.740873 L230.907060,401.949327 L265.115513,436.157780 L307.876080,393.397213 L333.532420,367.740873 L359.188760,342.084533 L367.740873,333.532420 " stroke="#FFCC00" stroke-width="1.0" fill="none"/>
<path d="M59.864793,333.532420 L76.969020,316.428193 L102.625360,342.084533 L136.833813,376.292987 L162.490153,401.949327 L196.698607,367.740873 L222.354947,342.084533 L239.459173,324.980307 L290.771853,273.667627 L307.876080,290.771853 L359.188760,342.084533 L367.740873,350.636647 " stroke="#00CCFF" stroke-width="1.0" fill="none"/>
<path d="M59.864793,350.636647 L76.969020,367.740873 L111.177473,401.949327 L171.042267,461.814120 L230.907060,401.949327 L273.667627,359.188760 L299.323967,333.532420 L333.532420,367.740873 L359.188760,393.397213 L367.740873,384.845100 " stroke="#FF00FF" stroke-width="1.0" fill="none"/>
<path d="M59.864793,384.845100 L76.969020,367.740873 L102.625360,342.084533 L136.833813,307.876080 L179.594380,265.115513 L239.459173,324.980307 L256.563400,342.084533 L273.667627,359.188760 L307.876080,393.397213 L367.740873,453.262007 " stroke="#000000" stroke-width="1.0" fill="none"/>
<path d="M367.740873,453.262007 L521.678913,607.200047 L675.616953,453.262007 L675.616953,453.262007 " stroke="#000000" stroke-width="1.0" fill="none"/>
<path d="M367.740873,453.262007 L419.053553,401.949327 L444.709893,376.292987 L478.918347,342.084533 L504.574687,316.428193 L530.231027,342.084533 L547.335253,359.188760 L564.439480,342.084533 L615.752160,290.771853 L675.616953,230.907060 L675.616953,230.907060 " stroke="#FF0000" stroke-width="1.0" fill="none"/>
<path d="M367.740873,230.907060 L521.678913,76.969020 L675.616953,230.907060 L675.616953,230.907060 " stroke="#00FF00" stroke-width="1.0" fill="none"/>
<path d="M367.740873,230.907060 L444.709893,307.876080 L478.918347,342.084533 L504.574687,367.740873 L538.783140,401.949327 L572.991593,436.157780 L615.752160,393.397213 L641.408500,367.740873 L667.064840,342.084533 L675.616953,333.532420 " stroke="#0000FF" stroke-width="1.0" fill="none"/>
<path d="M367.740873,333.532420 L384.845100,316.428193 L410.501440,342.084533 L444.709893,376.292987 L470.366233,401.949327 L504.574687,367.740873 L530.231027,342.084533 L547.335253,324.980307 L598.647933,273.667627 L615.752160,290.771853 L667.064840,342.084533 L675.616953,350.636647 " stroke="#FFCC00" stroke-width="1.0" fill="none"/>
<path d="M367.740873,350.636647 L384.845100,367.740873 L419.053553,401.949327 L478.918347,461.814120 L538.783140,401.949327 L581.543707,359.188760 L607.200047,333.532420 L641.408500,367.740873 L667.064840,393.397213 L675.616953,384.845100 " stroke="#00CCFF" stroke-width="1.0" fill="none"/>
<path d="M367.740873,384.845100 L384.845100,367.740873 L410.501440,342.084533 L444.709893,307.876080 L487.470460,265.115513 L547.335253,324.980307 L564.439480,342.084533 L581.543707,359.188760 L615.752160,393.397213 L675.616953,453.262007 " stroke="#FF00FF" stroke-width="1.0" fill="none"/>
<path d="M675.616953,453.262007 L829.554993,607.200047 L983.493033,453.262007 L983.493033,453.262007 " stroke="#FF00FF" stroke-width="1.0" fill="none"/>
<path d="M675.616953,453.262007 L726.929633,401.949327 L752.585973,376.292987 L786.794427,342.084533 L812.450767,316.428193 L838.107107,342.084533 L855.211333,359.188760 L872.315560,342.084533 L923.628240,290.771853 L983.493033,230.907060 L983.493033,230.907060 " stroke="#000000" stroke-width="1.0" fill="none"/>
<path d="M675.616953,230.907060 L829.554993,76.969020 L983.493033,230.907060 L983.493033,230.907060 " stroke="#FF0000" stroke-width="1.0" fill="none"/>
<path d="M675.616953,230.907060 L752.585973,307.876080 L786.794427,342.084533 L812.450767,367.740873 L846.659220,401.949327 L880.867673,436.157780 L923.628240,393.397213 L949.284580,367.740873 L974.940920,342.084533 L983.493033,333.532420 " stroke="#00FF00" stroke-width="1.0" fill="none"/>
<path d="M675.616953,333.532420 L692.721180,316.428193 L718.377520,342.084533 L752.585973,376.292987 L778.242313,401.949327 L812.450767,367.740873 L838.107107,342.084533 L855.211333,324.980307 L906.524013,273.667627 L923.628240,290.771853 L974.940920,342.084533 L983.493033,350.636647 " stroke="#0000FF" stroke-width="1.0" fill="none"/>
<path d="M675.616953,350.636647 L692.721180,367.740873 L726.929633,401.949327 L786.794427,461.814120 L846.659220,401.949327 L889.419787,359.188760 L915.076127,333.532420 L949.284580,367.740873 L974.940920,393.397213 L983.493033,384.845100 " stroke="#FFCC00" stroke-width="1.0" fill="none"/>
<path d="M675.616953,384.845100 L692.721180,367.740873 L718.377520,342.084533 L752.585973,307.876080 L795.346540,265.115513 L855.211333,324.980307 L872.315560,342.084533 L889.419787,359.188760 L923.628240,393.397213 L983.493033,453.262007 " stroke="#00CCFF" stroke-width="1.0" fill="none"/>
<path d="M983.493033,453.262007 L1137.431074,607.200047 L1291.369114,453.262007 L1291.369114,453.262007 " stroke="#00CCFF" stroke-width="1.0" fill="none"/>
<path d="M983.493033,453.262007 L1034.805714,401.949327 L1060.462054,376.292987 L1094.670507,342.084533 L1120.326847,316.428193 L1145.983187,342.084533 L1163.087414,359.188760 L1180.191640,342.084533 L1231.504320,290.771853 L1291.369114,230.907060 L1291.369114,230.907060 " stroke="#FF00FF" stroke-width="1.0" fill="none"/>
<path d="M983.493033,230.907060 L1137.431074,76.969020 L1291.369114,230.907060 L1291.369114,230.907060 " stroke="#000000" stroke-width="1.0" fill="none"/>
<path d="M983.493033,230.907060 L1060.462054,307.876080 L1094.670507,342.084533 L1120.326847,367.740873 L1154.535300,401.949327 L1188.743754,436.157780 L1231.504320,393.397213 L1257.160660,367.740873 L1282.817000,342.084533 L1291.369114,333.532420 " stroke="#FF0000" stroke-width="1.0" fill="none"/>
<path d="M983.493033,333.532420 L1000.597260,316.428193 L1026.253600,342.084533 L1060.462054,376.292987 L1086.118394,401.949327 L1120.326847,367.740873 L1145.983187,342.084533 L1163.087414,324.980307 L1214.400094,273.667627 L1231.504320,290.771853 L1282.817000,342.084533 L1291.369114,350.636647 " stroke="#00FF00" stroke-width="1.0" fill="none"/>
<path d="M983.493033,350.636647 L1000.597260,367.740873 L1034.805714,401.949327 L1094.670507,461.814120 L1154.535300,401.949327 L1197.295867,359.188760 L1222.952207,333.532420 L1257.160660,367.740873 L1282.817000,393.397213 L1291.369114,384.845100 " stroke="#0000FF" stroke-width="1.0" fill="none"/>
<path d="M983.493033,384.845100 L1000.597260,367.740873 L1026.253600,342.084533 L1060.462054,307.876080 L1103.222620,265.115513 L1163.087414,324.980307 L1180.191640,342.084533 L1197.295867,359.188760 L1231.504320,393.397213 L1291.369114,453.262007 " stroke="#FFCC00" stroke-width="1.0" fill="none"/>
<path d="M1291.369114,453.262007 L1445.307154,607.200047 L1599.245194,453.262007 L1599.245194,453.262007 " stroke="#FFCC00" stroke-width="1.0" fill="none"/>
<path d="M1291.369114,453.262007 L1342.681794,401.949327 L1368.338134,376.292987 L1402.546587,342.084533 L1428.202927,316.428193 L1453.859267,342.084533 L1470.963494,359.188760 L1488.067720,342.084533 L1539.380400,290.771853 L1599.245194,230.907060 L1599.245194,230.907060 " stroke="#00CCFF" stroke-width="1.0" fill="none"/>
<path d="M1291.369114,230.907060 L1445.307154,76.969020 L1599.245194,230.907060 L1599.245194,230.907060 " stroke="#FF00FF" stroke-width="1.0" fill="none"/>
<path d="M1291.369114,230.907060 L1368.338134,307.876080 L1402.546587,342.084533 L1428.202927,367.740873 L1462.411380,401.949327 L1496.619834,436.157780 L1539.380400,393.397213 L1565.036740,367.740873 L1590.693080,342.084533 L1599.245194,333.532420 " stroke="#000000" stroke-width="1.0" fill="none"/>
<path d="M1291.369114,333.532420 L1308.473340,316.428193 L1334.129680,342.084533 L1368.338134,376.292987 L1393.994474,401.949327 L1428.202927,367.740873 L1453.859267,342.084533 L1470.963494,324.980307 L1522.276174,273.667627 L1539.380400,290.771853 L1590.693080,342.084533 L1599.245194,350.636647 " stroke="#FF0000" stroke-width="1.0" fill="none"/>
<path d="M1291.369114,350.636647 L1308.473340,367.740873 L1342.681794,401.949327 L1402.546587,461.814120 L1462.411380,401.949327 L1505.171947,359.188760 L1530.828287,333.532420 L1565.036740,367.740873 L1590.693080,393.397213 L1599.245194,384.845100 " stroke="#00FF00" stroke-width="1.0" fill="none"/>
<path d="M1291.369114,384.845100 L1308.473340,367.740873 L1334.129680,342.084533 L1368.338134,307.876080 L1411.098700,265.115513 L1470.963494,324.980307 L1488.067720,342.084533 L1505.171947,359.188760 L1539.380400,393.397213 L1599.245194,453.262007 " stroke="#0000FF" stroke-width="1.0" fill="none"/>
<path d="M1599.245194,453.262007 L1753.183234,607.200047 L1907.121274,453.262007 L1907.121274,453.262007 " stroke="#0000FF" stroke-width="1.0" fill="none"/>
<path d="M1599.245194,453.262007 L1650.557874,401.949327 L1676.214214,376.292987 L1710.422667,342.084533 L1736.079007,316.428193 L1761.735347,342.084533 L1778.839574,359.188760 L1795.943800,342.084533 L1847.256480,290.771853 L1907.121274,230.907060 L1907.121274,230.907060 " stroke="#FFCC00" stroke-width="1.0" fill="none"/>
<path d="M1599.245194,230.907060 L1753.183234,76.969020 L1907.121274,230.907060 L1907.121274,230.907060 " stroke="#00CCFF" stroke-width="1.0" fill="none"/>
<path d="M1599.245194,230.907060 L1676.214214,307.876080 L1710.422667,342.084533 L1736.079007,367.740873 L1770.287460,401.949327 L1804.495914,436.157780 L1847.256480,393.397213 L1872.912820,367.740873 L1898.569160,342.084533 L1907.121274,333.532420 " stroke="#FF00FF" stroke-width="1.0" fill="none"/>
<path d="M1599.245194,333.532420 L1616.349420,316.428193 L1642.005760,342.084533 L1676.214214,376.292987 L1701.870554,401.949327 L1736.079007,367.740873 L1761.735347,342.084533 L1778.839574,324.980307 L1830.152254,273.667627 L1847.256480,290.771853 L1898.569160,342.084533 L1907.121274,350.636647 " stroke="#000000" stroke-width="1.0" fill="none"/>
<path d="M1599.245194,350.636647 L1616.349420,367.740873 L1650.557874,401.949327 L1710.422667,461.814120 L1770.287460,401.949327 L1813.048027,359.188760 L1838.704367,333.532420 L1872.912820,367.740873 L1898.569160,393.397213 L1907.121274,384.845100 " stroke="#FF0000" stroke-width="1.0" fill="none"/>
<path d="M1599.245194,384.845100 L1616.349420,367.740873 L1642.005760,342.084533 L1676.214214,307.876080 L1718.974780,265.115513 L1778.839574,324.980307 L1795.943800,342.084533 L1813.048027,359.188760 L1847.256480,393.397213 L1907.121274,453.262007 " stroke="#00FF00" stroke-width="1.0" fill="none"/>
<path d="M1907.121274,453.262007 L2061.059314,607.200047 L2214.997354,453.262007 L2214.997354,453.262007 " stroke="#00FF00" stroke-width="1.0" fill="none"/>
<path d="M1907.121274,453.262007 L1958.433954,401.949327 L1984.090294,376.292987 L2018.298747,342.084533 L2043.955087,316.428193 L2069.611427,342.084533 L2086.715654,359.188760 L2103.819880,342.084533 L2155.132560,290.771853 L2214.997354,230.907060 L2214.997354,230.907060 " stroke="#0000FF" stroke-width="1.0" fill="none"/>
<path d="M1907.121274,230.907060 L2061.059314,76.969020 L2214.997354,230.907060 L2214.997354,230.907060 " stroke="#FFCC00" stroke-width="1.0" fill="none"/>
<path d="M1907.121274,230.907060 L1984.090294,307.876080 L2018.298747,342.084533 L2043.955087,367.740873 L2078.163540,401.949327 L2112.371994,436.157780 L2155.132560,393.397213 L2180.788900,367.740873 L2206.445240,342.084533 L2214.997354,333.532420 " stroke="#00CCFF" stroke-width="1.0" fill="none"/>
<path d="M1907.121274,333.532420 L1924.225500,316.428193 L1949.881840,342.084533 L1984.090294,376.292987 L2009.746634,401.949327 L2043.955087,367.740873 L2069.611427,342.084533 L2086.715654,324.980307 L2138.028334,273.667627 L2155.132560,290.771853 L2206.445240,342.084533 L2214.997354,350.636647 " stroke="#FF00FF" stroke-width="1.0" fill="none"/>
<path d="M1907.121274,350.636647 L1924.225500,367.740873 L1958.433954,401.949327 L2018.298747,461.814120 L2078.163540,401.949327 L2120.924107,359.188760 L2146.580447,333.532420 L2180.788900,367.740873 L2206.445240,393.397213 L2214.997354,384.845100 " stroke="#000000" stroke-width="1.0" fill="none"/>
<path d="M1907.121274,384.845100 L1924.225500,367.740873 L1949.881840,342.084533 L1984.090294,307.876080 L2026.850860,265.115513 L2086.715654,324.980307 L2103.819880,342.084533 L2120.924107,359.188760 L2155.132560,393.397213 L2214.997354,453.262007 " stroke="#FF0000" stroke-width="1.0" fill="none"/>
</svg>
